<mxfile host="app.diagrams.net" modified="2023-06-11T15:08:59.886Z" agent="Mozilla/5.0 (Windows NT 10.0; Win64; x64) AppleWebKit/537.36 (KHTML, like Gecko) Chrome/114.0.0.0 Safari/537.36 Edg/114.0.1823.41" etag="jur_AD5Dthtt0lIXsy5d" version="21.3.8" type="device">
  <diagram name="Page-1" id="gqL_k_n_ioXtpcnPL3fc">
    <mxGraphModel dx="733" dy="377" grid="1" gridSize="10" guides="1" tooltips="1" connect="1" arrows="1" fold="1" page="1" pageScale="1" pageWidth="850" pageHeight="1100" math="0" shadow="0">
      <root>
        <mxCell id="0" />
        <mxCell id="1" parent="0" />
        <mxCell id="30EFYghPqSd8cCdRT7zD-1" value="role&amp;nbsp;" style="ellipse;whiteSpace=wrap;html=1;align=center;" vertex="1" parent="1">
          <mxGeometry x="775" y="660" width="100" height="40" as="geometry" />
        </mxCell>
        <mxCell id="30EFYghPqSd8cCdRT7zD-2" value="Social media&amp;nbsp;" style="whiteSpace=wrap;html=1;align=center;" vertex="1" parent="1">
          <mxGeometry x="910" y="450" width="100" height="40" as="geometry" />
        </mxCell>
        <mxCell id="30EFYghPqSd8cCdRT7zD-3" value="user_Id&amp;nbsp;" style="ellipse;whiteSpace=wrap;html=1;align=center;fontStyle=4;" vertex="1" parent="1">
          <mxGeometry x="640" y="680" width="100" height="40" as="geometry" />
        </mxCell>
        <mxCell id="30EFYghPqSd8cCdRT7zD-4" value="&amp;nbsp;full name" style="ellipse;whiteSpace=wrap;html=1;align=center;" vertex="1" parent="1">
          <mxGeometry x="500" y="660" width="100" height="40" as="geometry" />
        </mxCell>
        <mxCell id="30EFYghPqSd8cCdRT7zD-5" value="password" style="ellipse;whiteSpace=wrap;html=1;align=center;" vertex="1" parent="1">
          <mxGeometry x="340" y="550" width="100" height="40" as="geometry" />
        </mxCell>
        <mxCell id="30EFYghPqSd8cCdRT7zD-6" value="user_name" style="ellipse;whiteSpace=wrap;html=1;align=center;" vertex="1" parent="1">
          <mxGeometry x="440" y="490" width="100" height="40" as="geometry" />
        </mxCell>
        <mxCell id="30EFYghPqSd8cCdRT7zD-7" value="user&amp;nbsp;" style="whiteSpace=wrap;html=1;align=center;" vertex="1" parent="1">
          <mxGeometry x="680" y="560" width="100" height="40" as="geometry" />
        </mxCell>
        <mxCell id="30EFYghPqSd8cCdRT7zD-8" value="post&amp;nbsp;&amp;nbsp;" style="whiteSpace=wrap;html=1;align=center;" vertex="1" parent="1">
          <mxGeometry x="1290" y="510" width="100" height="40" as="geometry" />
        </mxCell>
        <mxCell id="30EFYghPqSd8cCdRT7zD-9" value="post_Name&amp;nbsp;" style="ellipse;whiteSpace=wrap;html=1;align=center;" vertex="1" parent="1">
          <mxGeometry x="1100" y="660" width="100" height="40" as="geometry" />
        </mxCell>
        <mxCell id="30EFYghPqSd8cCdRT7zD-10" value="post_Id&amp;nbsp;" style="ellipse;whiteSpace=wrap;html=1;align=center;fontStyle=4;" vertex="1" parent="1">
          <mxGeometry x="1220" y="660" width="100" height="40" as="geometry" />
        </mxCell>
        <mxCell id="30EFYghPqSd8cCdRT7zD-11" value="post_Content" style="ellipse;whiteSpace=wrap;html=1;align=center;" vertex="1" parent="1">
          <mxGeometry x="1380" y="620" width="100" height="40" as="geometry" />
        </mxCell>
        <mxCell id="30EFYghPqSd8cCdRT7zD-12" value="comment" style="ellipse;whiteSpace=wrap;html=1;align=center;" vertex="1" parent="1">
          <mxGeometry x="1630" y="710" width="100" height="40" as="geometry" />
        </mxCell>
        <mxCell id="30EFYghPqSd8cCdRT7zD-13" value="comment_Id" style="ellipse;whiteSpace=wrap;html=1;align=center;fontStyle=4;" vertex="1" parent="1">
          <mxGeometry x="1560" y="820" width="100" height="40" as="geometry" />
        </mxCell>
        <mxCell id="30EFYghPqSd8cCdRT7zD-14" value="comment_Content" style="ellipse;whiteSpace=wrap;html=1;align=center;" vertex="1" parent="1">
          <mxGeometry x="1730" y="820" width="100" height="40" as="geometry" />
        </mxCell>
        <mxCell id="30EFYghPqSd8cCdRT7zD-15" value="" style="endArrow=none;html=1;rounded=0;entryX=0.5;entryY=1;entryDx=0;entryDy=0;" edge="1" parent="1" target="30EFYghPqSd8cCdRT7zD-12">
          <mxGeometry width="50" height="50" relative="1" as="geometry">
            <mxPoint x="1613" y="819" as="sourcePoint" />
            <mxPoint x="1623" y="729" as="targetPoint" />
          </mxGeometry>
        </mxCell>
        <mxCell id="30EFYghPqSd8cCdRT7zD-16" value="" style="endArrow=none;html=1;rounded=0;entryX=1;entryY=1;entryDx=0;entryDy=0;exitX=0.5;exitY=0;exitDx=0;exitDy=0;" edge="1" parent="1" source="30EFYghPqSd8cCdRT7zD-14" target="30EFYghPqSd8cCdRT7zD-12">
          <mxGeometry width="50" height="50" relative="1" as="geometry">
            <mxPoint x="1620" y="820" as="sourcePoint" />
            <mxPoint x="1670" y="770" as="targetPoint" />
          </mxGeometry>
        </mxCell>
        <mxCell id="30EFYghPqSd8cCdRT7zD-17" value="" style="endArrow=none;html=1;rounded=0;entryX=0.75;entryY=1;entryDx=0;entryDy=0;exitX=0.5;exitY=0;exitDx=0;exitDy=0;" edge="1" parent="1" source="30EFYghPqSd8cCdRT7zD-11" target="30EFYghPqSd8cCdRT7zD-8">
          <mxGeometry width="50" height="50" relative="1" as="geometry">
            <mxPoint x="1420" y="650" as="sourcePoint" />
            <mxPoint x="1470" y="600" as="targetPoint" />
          </mxGeometry>
        </mxCell>
        <mxCell id="30EFYghPqSd8cCdRT7zD-18" value="" style="endArrow=none;html=1;rounded=0;entryX=0.25;entryY=1;entryDx=0;entryDy=0;exitX=0.5;exitY=0;exitDx=0;exitDy=0;" edge="1" parent="1" source="30EFYghPqSd8cCdRT7zD-10" target="30EFYghPqSd8cCdRT7zD-8">
          <mxGeometry width="50" height="50" relative="1" as="geometry">
            <mxPoint x="1370" y="670" as="sourcePoint" />
            <mxPoint x="1420" y="620" as="targetPoint" />
          </mxGeometry>
        </mxCell>
        <mxCell id="30EFYghPqSd8cCdRT7zD-19" value="" style="endArrow=none;html=1;rounded=0;exitX=0.5;exitY=0;exitDx=0;exitDy=0;entryX=0;entryY=0.5;entryDx=0;entryDy=0;" edge="1" parent="1" source="30EFYghPqSd8cCdRT7zD-9" target="30EFYghPqSd8cCdRT7zD-8">
          <mxGeometry width="50" height="50" relative="1" as="geometry">
            <mxPoint x="1370" y="680" as="sourcePoint" />
            <mxPoint x="1420" y="630" as="targetPoint" />
          </mxGeometry>
        </mxCell>
        <mxCell id="30EFYghPqSd8cCdRT7zD-20" value="" style="endArrow=none;html=1;rounded=0;entryX=-0.013;entryY=-0.003;entryDx=0;entryDy=0;exitX=1;exitY=0.5;exitDx=0;exitDy=0;entryPerimeter=0;" edge="1" parent="1" source="30EFYghPqSd8cCdRT7zD-6" target="30EFYghPqSd8cCdRT7zD-7">
          <mxGeometry width="50" height="50" relative="1" as="geometry">
            <mxPoint x="610" y="670" as="sourcePoint" />
            <mxPoint x="660" y="620" as="targetPoint" />
          </mxGeometry>
        </mxCell>
        <mxCell id="30EFYghPqSd8cCdRT7zD-21" value="" style="endArrow=none;html=1;rounded=0;exitX=1;exitY=0.5;exitDx=0;exitDy=0;entryX=0;entryY=0.75;entryDx=0;entryDy=0;" edge="1" parent="1" source="30EFYghPqSd8cCdRT7zD-5" target="30EFYghPqSd8cCdRT7zD-7">
          <mxGeometry width="50" height="50" relative="1" as="geometry">
            <mxPoint x="650" y="650" as="sourcePoint" />
            <mxPoint x="700" y="600" as="targetPoint" />
          </mxGeometry>
        </mxCell>
        <mxCell id="30EFYghPqSd8cCdRT7zD-22" value="" style="endArrow=none;html=1;rounded=0;" edge="1" parent="1" source="30EFYghPqSd8cCdRT7zD-4">
          <mxGeometry width="50" height="50" relative="1" as="geometry">
            <mxPoint x="650" y="650" as="sourcePoint" />
            <mxPoint x="700" y="600" as="targetPoint" />
          </mxGeometry>
        </mxCell>
        <mxCell id="30EFYghPqSd8cCdRT7zD-23" value="" style="endArrow=none;html=1;rounded=0;entryX=0.5;entryY=1;entryDx=0;entryDy=0;exitX=0.5;exitY=0;exitDx=0;exitDy=0;" edge="1" parent="1" source="30EFYghPqSd8cCdRT7zD-3" target="30EFYghPqSd8cCdRT7zD-7">
          <mxGeometry width="50" height="50" relative="1" as="geometry">
            <mxPoint x="650" y="700" as="sourcePoint" />
            <mxPoint x="700" y="650" as="targetPoint" />
          </mxGeometry>
        </mxCell>
        <mxCell id="30EFYghPqSd8cCdRT7zD-24" value="" style="endArrow=none;html=1;rounded=0;dashed=1;dashPattern=1 2;entryX=0;entryY=0.5;entryDx=0;entryDy=0;exitX=1;exitY=0.5;exitDx=0;exitDy=0;" edge="1" parent="1" source="30EFYghPqSd8cCdRT7zD-32" target="30EFYghPqSd8cCdRT7zD-12">
          <mxGeometry relative="1" as="geometry">
            <mxPoint x="1570" y="610" as="sourcePoint" />
            <mxPoint x="1660" y="590" as="targetPoint" />
          </mxGeometry>
        </mxCell>
        <mxCell id="30EFYghPqSd8cCdRT7zD-25" value="" style="endArrow=none;html=1;rounded=0;exitX=1;exitY=1;exitDx=0;exitDy=0;entryX=0.5;entryY=0;entryDx=0;entryDy=0;" edge="1" parent="1" source="30EFYghPqSd8cCdRT7zD-7" target="30EFYghPqSd8cCdRT7zD-1">
          <mxGeometry relative="1" as="geometry">
            <mxPoint x="740" y="640" as="sourcePoint" />
            <mxPoint x="900" y="640" as="targetPoint" />
          </mxGeometry>
        </mxCell>
        <mxCell id="30EFYghPqSd8cCdRT7zD-26" value="" style="endArrow=none;html=1;rounded=0;exitX=0.934;exitY=0.006;exitDx=0;exitDy=0;exitPerimeter=0;entryX=0;entryY=0.5;entryDx=0;entryDy=0;" edge="1" parent="1" source="30EFYghPqSd8cCdRT7zD-7" target="30EFYghPqSd8cCdRT7zD-2">
          <mxGeometry relative="1" as="geometry">
            <mxPoint x="890" y="640" as="sourcePoint" />
            <mxPoint x="1050" y="640" as="targetPoint" />
          </mxGeometry>
        </mxCell>
        <mxCell id="30EFYghPqSd8cCdRT7zD-27" value="" style="endArrow=none;html=1;rounded=0;exitX=1;exitY=0.5;exitDx=0;exitDy=0;entryX=0;entryY=0.25;entryDx=0;entryDy=0;" edge="1" parent="1" source="30EFYghPqSd8cCdRT7zD-2" target="30EFYghPqSd8cCdRT7zD-8">
          <mxGeometry relative="1" as="geometry">
            <mxPoint x="890" y="640" as="sourcePoint" />
            <mxPoint x="1050" y="640" as="targetPoint" />
          </mxGeometry>
        </mxCell>
        <mxCell id="30EFYghPqSd8cCdRT7zD-28" value="admin" style="ellipse;whiteSpace=wrap;html=1;align=center;" vertex="1" parent="1">
          <mxGeometry x="910" y="740" width="100" height="40" as="geometry" />
        </mxCell>
        <mxCell id="30EFYghPqSd8cCdRT7zD-29" value="member" style="ellipse;whiteSpace=wrap;html=1;align=center;" vertex="1" parent="1">
          <mxGeometry x="775" y="750" width="100" height="40" as="geometry" />
        </mxCell>
        <mxCell id="30EFYghPqSd8cCdRT7zD-30" value="" style="endArrow=none;html=1;rounded=0;exitX=1;exitY=0.5;exitDx=0;exitDy=0;entryX=0.448;entryY=-0.006;entryDx=0;entryDy=0;entryPerimeter=0;" edge="1" parent="1" source="30EFYghPqSd8cCdRT7zD-1" target="30EFYghPqSd8cCdRT7zD-28">
          <mxGeometry relative="1" as="geometry">
            <mxPoint x="830" y="720" as="sourcePoint" />
            <mxPoint x="990" y="720" as="targetPoint" />
          </mxGeometry>
        </mxCell>
        <mxCell id="30EFYghPqSd8cCdRT7zD-31" value="" style="endArrow=none;html=1;rounded=0;exitX=0.441;exitY=1.054;exitDx=0;exitDy=0;exitPerimeter=0;entryX=0.47;entryY=0.042;entryDx=0;entryDy=0;entryPerimeter=0;" edge="1" parent="1" source="30EFYghPqSd8cCdRT7zD-1" target="30EFYghPqSd8cCdRT7zD-29">
          <mxGeometry relative="1" as="geometry">
            <mxPoint x="830" y="720" as="sourcePoint" />
            <mxPoint x="990" y="720" as="targetPoint" />
          </mxGeometry>
        </mxCell>
        <mxCell id="30EFYghPqSd8cCdRT7zD-32" value="has" style="shape=rhombus;perimeter=rhombusPerimeter;whiteSpace=wrap;html=1;align=center;" vertex="1" parent="1">
          <mxGeometry x="1470" y="550" width="120" height="60" as="geometry" />
        </mxCell>
        <mxCell id="30EFYghPqSd8cCdRT7zD-33" value="" style="endArrow=none;html=1;rounded=0;exitX=1;exitY=0.5;exitDx=0;exitDy=0;entryX=0;entryY=0.5;entryDx=0;entryDy=0;" edge="1" parent="1" source="30EFYghPqSd8cCdRT7zD-8" target="30EFYghPqSd8cCdRT7zD-32">
          <mxGeometry relative="1" as="geometry">
            <mxPoint x="1410" y="600" as="sourcePoint" />
            <mxPoint x="1570" y="600" as="targetPoint" />
          </mxGeometry>
        </mxCell>
        <mxCell id="30EFYghPqSd8cCdRT7zD-34" value="N" style="resizable=0;html=1;whiteSpace=wrap;align=right;verticalAlign=bottom;" connectable="0" vertex="1" parent="1">
          <mxGeometry x="1640" y="720" as="geometry" />
        </mxCell>
        <mxCell id="30EFYghPqSd8cCdRT7zD-35" value="1" style="resizable=0;html=1;whiteSpace=wrap;align=right;verticalAlign=bottom;" connectable="0" vertex="1" parent="1">
          <mxGeometry x="1400" y="530" as="geometry" />
        </mxCell>
        <mxCell id="30EFYghPqSd8cCdRT7zD-36" value="has" style="shape=rhombus;perimeter=rhombusPerimeter;whiteSpace=wrap;html=1;align=center;" vertex="1" parent="1">
          <mxGeometry x="930" y="550" width="120" height="60" as="geometry" />
        </mxCell>
        <mxCell id="30EFYghPqSd8cCdRT7zD-37" value="" style="endArrow=none;html=1;rounded=0;exitX=1;exitY=0.5;exitDx=0;exitDy=0;entryX=0;entryY=0.5;entryDx=0;entryDy=0;" edge="1" parent="1" source="30EFYghPqSd8cCdRT7zD-7" target="30EFYghPqSd8cCdRT7zD-36">
          <mxGeometry relative="1" as="geometry">
            <mxPoint x="980" y="610" as="sourcePoint" />
            <mxPoint x="1140" y="610" as="targetPoint" />
          </mxGeometry>
        </mxCell>
        <mxCell id="30EFYghPqSd8cCdRT7zD-38" value="" style="endArrow=none;html=1;rounded=0;dashed=1;dashPattern=1 2;entryX=0;entryY=0.25;entryDx=0;entryDy=0;exitX=1;exitY=0.5;exitDx=0;exitDy=0;" edge="1" parent="1" source="30EFYghPqSd8cCdRT7zD-36" target="30EFYghPqSd8cCdRT7zD-8">
          <mxGeometry relative="1" as="geometry">
            <mxPoint x="980" y="610" as="sourcePoint" />
            <mxPoint x="1140" y="610" as="targetPoint" />
          </mxGeometry>
        </mxCell>
        <mxCell id="30EFYghPqSd8cCdRT7zD-39" value="N" style="resizable=0;html=1;whiteSpace=wrap;align=right;verticalAlign=bottom;rotation=-15;" connectable="0" vertex="1" parent="30EFYghPqSd8cCdRT7zD-38">
          <mxGeometry x="1" relative="1" as="geometry">
            <mxPoint x="-10" as="offset" />
          </mxGeometry>
        </mxCell>
        <mxCell id="30EFYghPqSd8cCdRT7zD-40" value="1" style="resizable=0;html=1;whiteSpace=wrap;align=right;verticalAlign=bottom;" connectable="0" vertex="1" parent="1">
          <mxGeometry x="790" y="580" as="geometry" />
        </mxCell>
        <mxCell id="30EFYghPqSd8cCdRT7zD-41" value="has" style="shape=rhombus;perimeter=rhombusPerimeter;whiteSpace=wrap;html=1;align=center;" vertex="1" parent="1">
          <mxGeometry x="1150" y="800" width="120" height="60" as="geometry" />
        </mxCell>
        <mxCell id="30EFYghPqSd8cCdRT7zD-42" value="" style="endArrow=none;html=1;rounded=0;dashed=1;dashPattern=1 2;entryX=0;entryY=1;entryDx=0;entryDy=0;" edge="1" parent="1" target="30EFYghPqSd8cCdRT7zD-12">
          <mxGeometry relative="1" as="geometry">
            <mxPoint x="1270" y="829.5" as="sourcePoint" />
            <mxPoint x="1430" y="829.5" as="targetPoint" />
          </mxGeometry>
        </mxCell>
        <mxCell id="30EFYghPqSd8cCdRT7zD-43" value="N" style="resizable=0;html=1;whiteSpace=wrap;align=right;verticalAlign=bottom;" connectable="0" vertex="1" parent="30EFYghPqSd8cCdRT7zD-42">
          <mxGeometry x="1" relative="1" as="geometry">
            <mxPoint x="-15" y="6" as="offset" />
          </mxGeometry>
        </mxCell>
        <mxCell id="30EFYghPqSd8cCdRT7zD-44" value="" style="endArrow=none;html=1;rounded=0;entryX=0;entryY=0;entryDx=0;entryDy=0;exitX=1;exitY=0.75;exitDx=0;exitDy=0;" edge="1" parent="1" source="30EFYghPqSd8cCdRT7zD-7" target="30EFYghPqSd8cCdRT7zD-41">
          <mxGeometry relative="1" as="geometry">
            <mxPoint x="900" y="730" as="sourcePoint" />
            <mxPoint x="1060" y="730" as="targetPoint" />
          </mxGeometry>
        </mxCell>
        <mxCell id="30EFYghPqSd8cCdRT7zD-45" value="1" style="resizable=0;html=1;whiteSpace=wrap;align=right;verticalAlign=bottom;rotation=20;" connectable="0" vertex="1" parent="1">
          <mxGeometry x="800" y="600" as="geometry" />
        </mxCell>
      </root>
    </mxGraphModel>
  </diagram>
</mxfile>
